<svg width="80" height="46" viewBox="0 0 80 46" fill="none" xmlns="http://www.w3.org/2000/svg">
<path d="M35.7456 42.429C34.5786 41.262 34.5786 39.353 35.7456 38.187L72.4936 1.43604C73.6606 0.269041 75.5696 0.269041 76.7356 1.43604L78.8706 3.57004C80.0376 4.73704 80.0376 6.64604 78.8706 7.81304L42.1226 44.564C40.9556 45.73 39.0476 45.731 37.8806 44.564L35.7456 42.429Z" fill="#2872DF"/>
<path d="M3.26556 1.43702C4.43256 0.270018 6.34156 0.270018 7.50756 1.43702L44.2576 38.185C45.4246 39.352 45.4246 41.261 44.2576 42.427L42.1226 44.562C40.9556 45.728 39.0466 45.729 37.8806 44.562L1.13056 7.81302C-0.035442 6.64602 -0.036442 4.73702 1.13056 3.57102L3.26556 1.43702Z" fill="#2872DF"/>
</svg>
