<svg width="44" height="68" viewBox="0 0 44 68" fill="none" xmlns="http://www.w3.org/2000/svg">
<path fill-rule="evenodd" clip-rule="evenodd" d="M7.49128 23.4846C10.6527 41.0981 -16.445 54.1953 16.5238 67.2925C9.29779 55.5502 17.4271 55.5502 16.5238 46.5177C17.8787 47.8726 18.782 49.2274 18.3304 51.0339C21.9434 49.2274 24.2015 44.2595 24.6531 37.9367C30.0727 43.8079 24.6531 51.4856 28.2662 56.4535C28.2662 54.1953 28.2662 52.3888 29.1694 50.1307C32.7824 55.0986 33.6857 60.9698 30.9759 67.2925C57.1703 47.8726 33.6857 39.7433 39.5569 18.0651C35.0406 19.8716 31.4276 23.4846 29.621 29.8074C23.2983 22.5814 19.6852 13.5488 23.2983 0C3.42663 19.8716 18.782 22.5814 13.8141 38.84C13.3624 31.1623 11.5559 25.7428 7.49128 23.4846Z" fill="#FE5E03"/>
</svg>
