<svg width="38" height="58" viewBox="0 0 38 58" fill="none" xmlns="http://www.w3.org/2000/svg">
<path fill-rule="evenodd" clip-rule="evenodd" d="M6.4568 20.2416C9.18163 35.4228 -14.1741 46.7114 14.242 58C8.01385 47.8792 15.0206 47.8792 14.242 40.094C15.4098 41.2617 16.1883 42.4295 15.7991 43.9866C18.9132 42.4295 20.8595 38.1477 21.2487 32.698C25.9199 37.7584 21.2487 44.3758 24.3628 48.6577C24.3628 46.7114 24.3628 45.1544 25.1414 43.2081C28.2555 47.4899 29.034 52.5503 26.6984 58C49.2756 41.2617 29.034 34.255 34.0944 15.5705C30.2018 17.1275 27.0877 20.2416 25.5306 25.6913C20.081 19.4631 16.9669 11.6779 20.081 0C2.95344 17.1275 16.1883 19.4631 11.9065 33.4765C11.5172 26.8591 9.96015 22.1879 6.4568 20.2416Z" fill="#0645C1"/>
</svg>
